<!-- Generated by IcoMoon.io -->
<svg version="1.1" xmlns="http://www.w3.org/2000/svg" width="340" height="32" viewBox="0 0 340 32">
<title>brand-logo</title>
<path d="M66.625 0.108c6.812 0 12.59 4.553 14.624 10.863h-5.58c-1.732-3.315-5.132-5.569-9.044-5.569-5.667 0-10.262 4.732-10.262 10.569 0 5.838 4.595 10.569 10.262 10.569 3.802 0 7.121-2.129 8.893-5.292h5.637c-2.112 6.167-7.82 10.587-14.531 10.587-8.507 0-15.404-7.103-15.404-15.864 0-8.76 6.897-15.863 15.404-15.863zM5.844 9.371v22.102h-5.204v-30.808h7.846l8.247 21.791 8.526-21.791h7.288v30.808h-5.204v-21.869l-7.859 21.869h-5.266l-8.374-22.102zM45.348 0.664v30.808h-5.179v-30.808zM91.3 18.373v13.1h-5.222v-30.808h5.222v12.552h15.45v-12.552h5.222v30.808h-5.222v-13.1zM124.846 23.788l-2.953 7.685h-5.583l12.155-30.808h5.626l12.155 30.808h-5.541l-2.995-7.685zM131.299 6.418l-4.659 12.259h9.318l-4.659-12.259zM150.98 0.664h21.818v5.112h-16.202v7.484h15.29v5.158h-15.29v7.941h16.34v5.112h-21.955v-30.808zM185.258 0.664v25.696h13.811v5.112h-19.464v-30.808zM225.405 21.075v10.397h-5.165v-30.808h5.165v13.722l12.931-13.722h6.676l-11.674 12.472 13.868 18.336h-6.857l-10.342-14.788zM268.714 30.442c-3.831 1.635-8.503 1.681-12.337 0.046-1.935-0.825-3.581-1.973-4.948-3.394l-0.005-0.005c-1.367-1.42-2.492-3.084-3.302-4.919l-0.043-0.109c-0.826-1.903-1.216-3.987-1.216-6.207 0-2.175 0.435-4.212 1.26-6.161 0.84-1.964 1.968-3.645 3.35-5.079l-0.005 0.005c1.371-1.425 3.019-2.573 4.857-3.36l0.097-0.037c1.908-0.817 3.95-1.224 6.122-1.224s4.212 0.407 6.124 1.224c1.935 0.824 3.582 1.972 4.949 3.392l0.005 0.005c1.377 1.429 2.503 3.11 3.302 4.966l0.041 0.108c0.826 1.948 1.261 3.986 1.261 6.161 0 2.22-0.392 4.259-1.216 6.161-0.853 1.944-1.978 3.609-3.351 5.034l0.005-0.005c-1.371 1.424-3.017 2.572-4.854 3.36l-0.097 0.037zM266.455 25.641c1.272-0.557 2.354-1.321 3.254-2.262l0.003-0.004c0.911-0.951 1.646-2.079 2.147-3.327l0.025-0.070c0.495-1.208 0.782-2.61 0.782-4.079 0-0.015-0-0.030-0-0.046v0.002c0-0.014 0-0.030 0-0.047 0-1.468-0.287-2.869-0.807-4.15l0.027 0.074c-0.526-1.318-1.262-2.446-2.177-3.401l0.004 0.004c-1.817-1.9-4.372-3.081-7.203-3.081-0.002 0-0.005 0-0.007 0h0c-0.018-0-0.040-0-0.061-0-1.394 0-2.717 0.3-3.909 0.84l0.060-0.024c-1.251 0.569-2.317 1.331-3.209 2.262l-0.003 0.004c-0.912 0.951-1.647 2.079-2.149 3.327l-0.025 0.070c-0.494 1.207-0.781 2.608-0.781 4.076 0 0.017 0 0.033 0 0.050v-0.003c0 1.45 0.26 2.808 0.781 4.123 0.526 1.318 1.261 2.446 2.176 3.401l-0.004-0.004c0.896 0.934 1.962 1.697 3.15 2.239l0.064 0.026c1.132 0.515 2.456 0.816 3.849 0.816 0.021 0 0.043-0 0.064-0l-0.003 0c0.009 0 0.020 0 0.031 0 1.418 0 2.766-0.3 3.984-0.84l-0.063 0.025zM291.059 16.045h9.114c0.673 0 1.265-0.182 1.77-0.502 0.506-0.319 0.928-0.73 1.267-1.233 0.337-0.502 0.589-1.094 0.758-1.733 0.169-0.64 0.253-1.279 0.253-1.917s-0.084-1.277-0.253-1.871c-0.179-0.625-0.438-1.172-0.772-1.664l0.013 0.020c-0.323-0.493-0.749-0.893-1.248-1.177l-0.018-0.009c-0.472-0.259-1.035-0.411-1.633-0.411-0.019 0-0.038 0-0.057 0l0.003-0h-9.155zM291.017 21.34v10.132h-5.189v-30.808h15.060c1.35 0 2.574 0.274 3.629 0.822 1.066 0.55 1.954 1.304 2.643 2.217l0.014 0.019c0.717 0.959 1.267 2.008 1.645 3.195 0.38 1.187 0.591 2.373 0.591 3.606 0 4.882-1.478 7.144-5.17 9.727l7.048 11.086h-6.268l-5.898-10.132zM314.87 26.746l3.017-4.269c4.058 2.469 5.985 4.116 11.293 4.116 1.869 0 3.201-0.356 4.003-1.068 2.093-1.86 1.38-5.435-1.311-6.412-2.803-1.016-6.527-0.906-9.766-2.077-3.749-1.354-6.774-4.237-5.733-9.549 0.582-2.971 2.513-5.399 5.381-6.388 1.29-0.444 2.757-0.667 4.403-0.667 0.845 0 1.823 0.045 2.89 0.178s2.179 0.356 3.291 0.623c1.111 0.266 2.223 0.622 3.334 1.111 1.114 0.489 2.135 1.068 3.068 1.779l-2.179 4.357c-2.87-1.856-10.624-4.58-13.798-2.232-1.93 1.426-1.669 4.337 0.915 5.728 2.423 1.302 6.522 1.581 8.284 1.878 4.545 0.767 7.163 2.984 7.712 6.248 0.726 4.317-1.006 7.743-3.981 9.628-2.043 1.295-4.698 1.742-7.447 1.742-5.66 0-8.896-1.485-13.376-4.727z"></path>
</svg>
